<svg width="1935" height="194" viewBox="0 0 1935 194" fill="none" xmlns="http://www.w3.org/2000/svg">
<g clip-path="url(#clip0_15_261)">
<path d="M1035.77 48.2901L1063.16 1.01685L1173.46 1.00247L1200.7 48.7452L1200.74 144.25L1173.47 191.964L1063.2 192.002L1035.49 144.255L1035.77 48.2901Z" fill="#4D4D4D"/>
<path d="M1035.5 144.24H1085.21L1057.9 96.1286L1080.11 48.2996L1035.77 48.29L1008 96.5168" fill="#EDEDED"/>
<path d="M1100.28 144.24H1136.62L1168.75 97.4128L1137.18 48.75H1094.44L1068.69 95.7741L1100.28 144.24Z" fill="#E0E0E0"/>
<path d="M1008 96.512L1035.5 144.255H1085.21L1058.2 96.6749L1008 96.512Z" fill="#ACACAC"/>
<path d="M1069.21 96.5215L1100.29 144.255H1136.62L1168.24 96.5407L1069.21 96.5215Z" fill="#9E9E9E"/>
<path d="M1081.52 96.5455L1072.14 99.2767L1063.14 96.5407L1099.88 32.8613L1109.07 48.7596" fill="#00B8E3"/>
<path d="M1109.03 144.24L1099.89 160.206L1075.48 133.915L1063.12 96.5551V96.5359H1081.51" fill="#33C6E9"/>
<path d="M1063.14 96.5407H1063.13V96.5551L1053.94 112.473L1044.72 96.627L1054.07 80.4029L1081.52 32.8709H1099.89" fill="#008AAA"/>
<path d="M1164.23 144.24H1219.88L1219.84 48.7452H1164.23V144.24Z" fill="#D4D4D4"/>
<path d="M1164.23 96.6701V144.25H1219.78V96.6701H1164.23Z" fill="#919191"/>
<path d="M1099.9 160.225H1081.51L1053.94 112.468L1063.13 96.5599L1099.9 160.225Z" fill="#00B8E3"/>
<path d="M1173.41 96.5407L1136.66 160.211C1133.28 155.247 1127.49 144.255 1127.49 144.255L1155.06 96.5311L1173.41 96.5407Z" fill="#008AAA"/>
<path d="M1155.01 160.211L1136.66 160.206L1173.41 96.5359L1182.6 80.6376L1191.81 96.6413M1173.41 96.5407H1155.07L1127.49 48.7548L1136.62 32.8757L1158.94 61.2511L1173.41 96.5407Z" fill="#00B8E3"/>
<path d="M1182.6 80.6281V80.6424L1173.41 96.5407L1136.62 32.8805L1155.03 32.8901L1182.6 80.6281Z" fill="#33C6E9"/>
<path d="M1851.23 48.8219C1851.11 48.8206 1850.99 48.844 1850.87 48.8908C1850.76 48.9376 1850.65 49.0068 1850.57 49.0944C1850.48 49.1819 1850.41 49.286 1850.36 49.4005C1850.32 49.515 1850.3 49.6376 1850.3 49.761V143.21C1850.3 143.718 1850.71 144.145 1851.23 144.145H1870.63C1871.14 144.145 1871.57 143.713 1871.57 143.21V117.484C1871.57 117.264 1871.64 117.039 1871.81 116.862L1872.68 115.884L1880.34 107.346C1880.44 107.244 1880.55 107.164 1880.68 107.111C1880.81 107.059 1880.95 107.035 1881.08 107.043C1881.22 107.05 1881.36 107.088 1881.48 107.154C1881.6 107.219 1881.71 107.311 1881.79 107.422L1889.11 117.293L1902.22 134.926L1907.02 141.38L1908.78 143.761C1908.97 144.001 1909.24 144.145 1909.54 144.145H1932.06C1932.23 144.141 1932.4 144.092 1932.55 144.001C1932.69 143.91 1932.81 143.781 1932.89 143.628C1932.97 143.475 1933.01 143.303 1933 143.131C1932.99 142.959 1932.93 142.792 1932.84 142.65L1928.17 136.152L1921.52 126.79C1919.54 124.03 1917.42 121.049 1915.13 117.849L1914.1 116.392L1905.67 104.509C1902.58 100.184 1899.49 95.8618 1896.4 91.5432C1896.28 91.3716 1896.22 91.1627 1896.23 90.952C1896.24 90.7414 1896.33 90.5421 1896.48 90.3884L1903.91 82.1278L1921.76 62.2909L1932.49 50.3743C1932.63 50.2076 1932.71 50.0016 1932.73 49.785C1932.73 49.6595 1932.71 49.5345 1932.66 49.4175C1932.62 49.3005 1932.55 49.1938 1932.46 49.1039C1932.37 49.014 1932.27 48.9427 1932.15 48.8943C1932.04 48.8458 1931.91 48.8212 1931.79 48.8219H1907.97C1907.84 48.8216 1907.72 48.8479 1907.6 48.899C1907.48 48.9501 1907.37 49.025 1907.29 49.119L1899.82 57.2358L1883.89 74.5524L1873.18 86.1862C1873.06 86.3263 1872.89 86.4246 1872.71 86.468C1872.52 86.5114 1872.33 86.4979 1872.15 86.4293C1871.98 86.3606 1871.83 86.2401 1871.72 86.0837C1871.62 85.9273 1871.56 85.7425 1871.56 85.5537V49.7562C1871.56 49.5084 1871.47 49.2708 1871.29 49.0956C1871.11 48.9203 1870.88 48.8219 1870.63 48.8219H1851.23Z" fill="#626262"/>
<path d="M1782.18 48.8219C1782 48.8256 1781.82 48.8818 1781.67 48.9838C1781.52 49.0858 1781.4 49.2292 1781.33 49.3969L1756.35 107.207L1756.33 107.221L1756.3 107.283L1756.29 107.331L1753.06 114.83L1752.86 115.29L1752.45 116.224H1752.45L1752.1 117.02V117.034L1742.39 139.521L1740.96 142.827C1740.9 142.969 1740.87 143.125 1740.89 143.28C1740.9 143.435 1740.95 143.585 1741.03 143.716C1741.12 143.846 1741.23 143.954 1741.37 144.029C1741.51 144.104 1741.66 144.143 1741.81 144.145H1762.42C1762.6 144.143 1762.77 144.091 1762.92 143.996C1763.06 143.902 1763.18 143.767 1763.26 143.608C1763.26 143.589 1763.28 143.589 1763.28 143.574L1770.46 126.876L1771.64 124.116C1771.72 123.946 1771.84 123.801 1771.99 123.698C1772.15 123.596 1772.33 123.542 1772.52 123.541H1811.23C1811.42 123.54 1811.6 123.594 1811.75 123.696C1811.9 123.799 1812.02 123.945 1812.09 124.116L1820.06 142.64L1829 110.93L1821.81 94.3031L1815.4 79.4589L1802.4 49.4017C1802.33 49.2306 1802.22 49.0843 1802.06 48.9817C1801.91 48.8791 1801.73 48.8251 1801.55 48.8267H1789.44L1782.18 48.8219ZM1820.06 142.64V142.654L1820.47 143.574C1820.62 143.924 1820.95 144.149 1821.33 144.149H1841.93C1842.09 144.148 1842.24 144.108 1842.38 144.033C1842.51 143.958 1842.63 143.85 1842.72 143.719C1842.8 143.588 1842.85 143.438 1842.86 143.282C1842.88 143.126 1842.85 142.97 1842.79 142.827L1842.6 142.396L1829 110.93L1820.06 142.64ZM1791.93 78.6156C1792.29 78.6156 1792.64 78.8073 1792.8 79.1762L1797.32 89.7176L1801.88 100.379L1803.25 103.56C1803.31 103.702 1803.33 103.858 1803.32 104.012C1803.31 104.167 1803.26 104.316 1803.17 104.445C1803.09 104.575 1802.97 104.681 1802.83 104.754C1802.7 104.827 1802.54 104.865 1802.39 104.864H1781.36C1781.2 104.864 1781.05 104.826 1780.91 104.752C1780.78 104.679 1780.66 104.572 1780.58 104.443C1780.49 104.314 1780.44 104.165 1780.43 104.011C1780.42 103.857 1780.44 103.702 1780.5 103.56L1782.98 97.8584L1791.07 79.1714C1791.15 79.0047 1791.27 78.8633 1791.42 78.7645C1791.58 78.6658 1791.76 78.614 1791.94 78.6156H1791.93Z" fill="#6F6F6F"/>
<path d="M1695.4 46.637C1691.44 46.637 1687.65 47.0011 1684.05 47.763H1684.04C1677.94 48.9857 1672.15 51.4093 1667 54.8928C1664.43 56.6249 1662.03 58.588 1659.83 60.7576C1652.71 67.7197 1648.19 76.0761 1646.34 85.5585L1646.33 85.5729L1646.26 85.9371L1646.24 86.0473L1646.04 87.1254V87.1206L1646.02 87.1781V87.2068L1645.97 87.6141V87.6572C1645.56 90.377 1645.36 93.1242 1645.37 95.8747C1645.37 108.476 1649.28 119.219 1657.11 128.107C1657.95 129.094 1658.87 130.043 1659.82 130.977C1662.24 133.354 1664.81 135.434 1667.52 137.206C1675.57 142.468 1684.86 145.098 1695.4 145.098C1696.57 145.098 1697.73 145.069 1698.87 144.988C1709.08 144.413 1718.04 141.231 1725.78 135.448C1727.62 134.079 1729.36 132.585 1730.99 130.977L1731.04 130.93C1734.76 127.329 1737.87 123.15 1740.25 118.553C1740.96 117.173 1741.59 115.764 1742.15 114.303C1744.35 108.678 1745.45 102.53 1745.45 95.8795C1745.45 94.0875 1745.37 92.3242 1745.21 90.6088V90.5801C1744.77 85.4574 1743.51 80.4399 1741.46 75.7263C1739.06 70.2161 1735.58 65.2281 1730.99 60.7576C1729.09 58.8889 1727.09 57.2119 1725 55.7169C1716.57 49.6652 1706.71 46.637 1695.4 46.637ZM1695.48 65.1945C1703.44 65.1945 1710.14 68.1893 1715.59 74.1787C1715.89 74.4997 1716.18 74.8303 1716.43 75.1609C1721.33 80.9778 1723.77 87.9064 1723.77 95.937C1723.77 101.543 1722.58 106.589 1720.2 111.088C1718.76 113.813 1716.93 116.308 1714.75 118.491C1712.81 120.495 1710.58 122.189 1708.13 123.512C1704.34 125.539 1700.13 126.555 1695.48 126.555C1691.22 126.601 1687.01 125.628 1683.21 123.718C1681.27 122.717 1679.47 121.477 1677.84 120.029C1676.97 119.279 1676.14 118.474 1675.37 117.619C1669.91 111.663 1667.18 104.437 1667.18 95.9418C1667.18 95.6878 1667.18 95.4483 1667.19 95.1943C1667.33 87.0152 1670.06 80.0147 1675.37 74.1787C1679.35 69.8088 1684.01 67.0153 1689.33 65.8414C1691.35 65.4062 1693.41 65.1894 1695.48 65.1945Z" fill="#7D7D7D"/>
<path d="M1584.23 48.8219C1584.11 48.8206 1583.98 48.844 1583.87 48.8908C1583.76 48.9376 1583.65 49.0068 1583.56 49.0944C1583.48 49.1819 1583.41 49.286 1583.36 49.4005C1583.32 49.515 1583.29 49.6376 1583.3 49.761V143.21C1583.3 143.718 1583.71 144.145 1584.23 144.145H1644.26C1644.79 144.145 1645.2 143.713 1645.2 143.21V126.104C1645.2 125.982 1645.18 125.86 1645.13 125.747C1645.08 125.634 1645.01 125.531 1644.92 125.445C1644.84 125.359 1644.73 125.291 1644.62 125.244C1644.51 125.198 1644.38 125.174 1644.26 125.175H1605.5C1605.37 125.176 1605.25 125.153 1605.14 125.108C1605.03 125.063 1604.93 124.996 1604.84 124.911C1604.75 124.825 1604.69 124.724 1604.64 124.613C1604.59 124.501 1604.57 124.381 1604.57 124.26V49.761C1604.57 49.5829 1604.52 49.4081 1604.42 49.2582C1604.33 49.1083 1604.19 48.9899 1604.03 48.9177C1603.9 48.8533 1603.77 48.8203 1603.63 48.8219H1592.88H1584.23Z" fill="#888888"/>
<path d="M1534.11 46.6418C1520.1 46.6418 1508.26 51.3806 1498.58 60.8247C1496.82 62.5496 1495.22 64.3608 1493.77 66.2391V66.2583C1487.3 74.6722 1484.06 84.6577 1484.06 96.2053C1484.06 102.803 1485.09 108.855 1487.17 114.384L1487.2 114.375L1487.18 114.389C1488.39 117.719 1490.01 120.791 1491.96 123.723V123.737C1491.98 123.737 1491.98 123.752 1491.98 123.752C1493.82 126.491 1495.94 129.028 1498.32 131.322C1501.17 134.124 1504.37 136.558 1507.82 138.567H1507.84C1509.32 139.422 1510.84 140.197 1512.4 140.886H1512.44L1512.45 140.901H1512.47C1519.03 143.785 1526.4 145.227 1534.59 145.227C1537 145.227 1539.36 145.05 1541.66 144.72H1541.71C1543.18 144.513 1544.64 144.231 1546.08 143.881C1554.15 141.945 1561.54 137.858 1568.27 131.629C1569.61 130.393 1570.95 129.042 1572.25 127.619C1572.41 127.438 1572.49 127.205 1572.49 126.965C1572.48 126.725 1572.38 126.497 1572.22 126.325L1559.92 113.661C1559.82 113.55 1559.69 113.467 1559.54 113.42C1559.4 113.372 1559.25 113.361 1559.1 113.388C1558.88 113.436 1558.68 113.554 1558.54 113.723C1555.26 117.604 1551.52 120.522 1547.34 122.453C1543.18 124.37 1538.59 125.328 1533.57 125.328C1530.13 125.328 1526.9 124.787 1523.93 123.694C1520.21 122.304 1516.85 120.111 1514.07 117.274C1511.27 114.489 1509.14 111.104 1507.84 107.374H1507.81L1507.84 107.37C1506.62 103.944 1506.02 100.144 1506.02 95.9418C1506.02 87.686 1508.48 81.0018 1513.42 75.8988C1513.78 75.5347 1514.15 75.1657 1514.55 74.7968C1520.22 69.574 1527.06 66.9578 1535.07 66.9578C1538 66.9578 1540.81 67.322 1543.46 68.0551V68.0503C1549.54 69.6986 1554.88 73.2491 1559.48 78.6683C1559.84 79.0996 1560.51 79.1283 1560.86 78.7019L1572.83 65.1323C1572.99 64.9552 1573.07 64.7296 1573.06 64.4971C1573.06 64.2646 1572.98 64.0409 1572.82 63.8673C1563.45 53.5799 1552.11 47.8923 1538.8 46.8286C1537.26 46.7088 1535.7 46.637 1534.12 46.637L1534.11 46.6418Z" fill="#949494"/>
<path d="M1403.75 48.8219C1403.59 48.8221 1403.43 48.8649 1403.29 48.9459C1403.14 49.0269 1403.03 49.1433 1402.94 49.2837C1402.86 49.4241 1402.82 49.5836 1402.82 49.7463C1402.81 49.909 1402.86 50.0693 1402.93 50.2114L1412 66.0666L1428.4 94.7343L1435.02 106.282C1435.1 106.424 1435.14 106.584 1435.14 106.747V143.21C1435.14 143.718 1435.55 144.145 1436.08 144.145H1455.48C1456 144.145 1456.41 143.713 1456.41 143.21V106.747C1456.41 106.589 1456.45 106.43 1456.54 106.287L1461.21 98.1123L1478.96 67.0824L1482.59 60.7576L1485 56.5411H1484.97L1485 56.5267L1488.61 50.221C1488.69 50.0798 1488.74 49.9201 1488.73 49.7576C1488.73 49.5951 1488.69 49.4357 1488.61 49.2951C1488.53 49.1545 1488.41 49.0377 1488.27 48.9564C1488.13 48.875 1487.97 48.832 1487.81 48.8315H1466.9C1466.74 48.8315 1466.58 48.8734 1466.44 48.9531C1466.3 49.0329 1466.18 49.1478 1466.1 49.2867L1447.15 81.8834L1447.14 81.8978V81.9122L1446.12 82.6597L1445.36 83.2442C1445.2 83.162 1445.06 83.0358 1444.97 82.8801L1444.65 82.3434L1444.17 81.5289L1425.46 49.2819C1425.38 49.1423 1425.26 49.027 1425.12 48.9472C1424.97 48.8674 1424.81 48.8258 1424.65 48.8267L1403.75 48.8219ZM1478.2 58.5966V58.6062L1478.18 58.6158L1478.2 58.5966Z" fill="#AAAAAA"/>
<path d="M1327.13 48.8219C1327 48.82 1326.88 48.8429 1326.77 48.8894C1326.65 48.9359 1326.55 49.005 1326.46 49.0926C1326.37 49.1802 1326.3 49.2845 1326.26 49.3994C1326.21 49.5142 1326.19 49.6372 1326.19 49.761V143.21C1326.19 143.718 1326.6 144.145 1327.12 144.145H1395.47C1396 144.145 1396.41 143.713 1396.41 143.21V126.248C1396.41 126.001 1396.31 125.764 1396.13 125.59C1395.96 125.416 1395.72 125.319 1395.47 125.319H1348.39C1348.27 125.319 1348.15 125.296 1348.03 125.249C1347.92 125.202 1347.82 125.133 1347.73 125.047C1347.64 124.96 1347.57 124.857 1347.53 124.743C1347.48 124.629 1347.45 124.507 1347.45 124.384V106.478C1347.45 105.97 1347.89 105.539 1348.39 105.539H1389.22C1389.46 105.539 1389.7 105.441 1389.87 105.267C1390.05 105.093 1390.15 104.857 1390.15 104.61V88.3472C1390.15 87.8201 1389.72 87.4129 1389.22 87.4129H1348.39C1348.14 87.4116 1347.9 87.3127 1347.73 87.1378C1347.55 86.9628 1347.46 86.7259 1347.45 86.4785V68.7067C1347.45 68.1797 1347.89 67.7724 1348.39 67.7724H1393.99C1394.24 67.7724 1394.47 67.6739 1394.65 67.4987C1394.82 67.3235 1394.92 67.0858 1394.92 66.838V49.7562C1394.92 49.5084 1394.82 49.2708 1394.65 49.0956C1394.47 48.9203 1394.24 48.8219 1393.99 48.8219H1356.47H1327.13Z" fill="#BCBCBC"/>
<path d="M1234.44 48.8219C1234.32 48.8206 1234.2 48.844 1234.08 48.8908C1233.97 48.9376 1233.87 49.0068 1233.78 49.0944C1233.69 49.1819 1233.62 49.286 1233.58 49.4005C1233.53 49.515 1233.51 49.6376 1233.51 49.761V143.21C1233.51 143.718 1233.92 144.145 1234.44 144.145H1253.84C1254.37 144.145 1254.78 143.713 1254.78 143.21V117.484C1254.78 117.264 1254.86 117.039 1255.02 116.862L1259.05 112.348L1263.56 107.346C1263.65 107.245 1263.77 107.167 1263.89 107.115C1264.02 107.064 1264.16 107.041 1264.3 107.049C1264.43 107.056 1264.57 107.093 1264.69 107.158C1264.81 107.222 1264.91 107.313 1265 107.422L1278.45 125.52L1278.46 125.529L1288.12 138.529L1292 143.752C1292.09 143.871 1292.2 143.968 1292.33 144.035C1292.46 144.101 1292.6 144.136 1292.75 144.135H1315.29C1315.46 144.132 1315.63 144.083 1315.77 143.992C1315.92 143.901 1316.03 143.772 1316.11 143.62C1316.19 143.467 1316.22 143.296 1316.21 143.125C1316.2 142.954 1316.14 142.79 1316.04 142.65L1315.22 141.495C1312.27 137.37 1309.32 133.238 1306.38 129.099C1303.67 125.314 1300.66 121.083 1297.33 116.392L1297 115.913C1291.22 107.778 1285.42 99.6548 1279.61 91.5431C1279.49 91.3695 1279.44 91.1611 1279.45 90.9516C1279.47 90.7421 1279.55 90.5437 1279.69 90.3884L1288.18 80.9587V80.9395L1295.18 73.1772L1301.89 65.712L1315.69 50.3696C1315.82 50.2358 1315.89 50.0698 1315.92 49.8918C1315.95 49.7138 1315.93 49.5314 1315.85 49.3669C1315.78 49.2024 1315.66 49.0629 1315.51 48.9653C1315.36 48.8676 1315.18 48.8162 1315 48.8171H1291.2C1291.07 48.8157 1290.94 48.8419 1290.82 48.8939C1290.7 48.9459 1290.59 49.0226 1290.5 49.119L1275.74 65.1466L1256.4 86.1814C1256.27 86.3215 1256.1 86.4198 1255.92 86.4632C1255.74 86.5066 1255.54 86.4931 1255.37 86.4245C1255.19 86.3558 1255.04 86.2353 1254.93 86.0789C1254.83 85.9225 1254.77 85.7377 1254.78 85.5489V49.7323C1254.78 49.6104 1254.75 49.4899 1254.7 49.3776C1254.66 49.2654 1254.59 49.1636 1254.5 49.0781C1254.41 48.9926 1254.31 48.9251 1254.2 48.8795C1254.08 48.8339 1253.96 48.811 1253.84 48.8123H1243.73L1234.44 48.8219Z" fill="#B8B8B8"/>
<path d="M1435.54 143.819C1435.42 143.699 1435.32 135.242 1435.32 125.036V106.464L1419.13 78.1748C1409.56 61.4667 1403.01 49.6892 1403.11 49.4113C1403.27 49.0088 1404.82 48.9417 1414.03 48.9417C1423.86 48.9417 1424.81 48.9896 1425.25 49.4927C1425.51 49.7994 1429.98 57.3939 1435.16 66.3733C1440.35 75.3478 1444.76 82.8705 1444.96 83.0861C1445.89 84.0923 1447.17 82.2188 1456.85 65.5395L1466.48 48.9369H1477.38C1486.46 48.9369 1488.31 49.0136 1488.45 49.3873C1488.55 49.6269 1481.37 62.5017 1472.51 77.9879L1456.4 106.143L1456.09 143.862L1445.92 143.948C1440.33 143.996 1435.66 143.939 1435.54 143.819Z" fill="#A0A0A0"/>
<path d="M1326.45 143.632C1326.37 143.416 1326.34 122.056 1326.38 96.1718L1326.46 49.1046H1394.6V67.4897L1371.34 67.5712C1354.79 67.6287 1347.95 67.7532 1347.65 68.0024C1347.02 68.5247 1347.02 86.7373 1347.65 87.2548C1347.95 87.5039 1354.17 87.6333 1368.96 87.686L1389.85 87.7722V105.204L1368.96 105.285C1354.17 105.343 1347.95 105.472 1347.65 105.717C1347.31 106.004 1347.22 107.945 1347.22 115.204C1347.22 120.22 1347.31 124.547 1347.41 124.83C1347.58 125.28 1349.99 125.328 1371.37 125.328C1387.13 125.328 1395.33 125.438 1395.74 125.659C1396.32 125.97 1396.35 126.406 1396.35 134.629C1396.35 140.925 1396.25 143.373 1395.97 143.651C1395.4 144.216 1326.66 144.197 1326.45 143.632Z" fill="#ACACAC"/>
</g>
<path d="M0 1.8009L111.499 193.095L154.689 119.759L86.0747 1.8009H0Z" fill="#6FA1CE"/>
<path d="M85.564 1.8009L197.165 193.095L240.356 119.759L171.639 1.8009H85.564Z" fill="#006FAD"/>
<path d="M309.481 1.8009H171.435L240.254 119.759L309.481 1.8009Z" fill="#003A5D"/>
<path d="M327.145 1.8009H326.737L214.523 193.095H327.145C380.852 193.095 424.758 150.074 424.758 97.448C424.758 44.8221 380.852 1.8009 327.145 1.8009Z" fill="#003A5D"/>
<path d="M477.853 26.6132C477.853 40.3199 466.519 51.3254 452.633 51.3254C438.644 51.3254 427.413 40.2199 427.413 26.6132C427.413 12.9064 438.746 1.901 452.633 1.901C466.519 1.80095 477.853 12.9064 477.853 26.6132Z" fill="#AFCA0B"/>
<path d="M530.539 1.50076H548.611L559.128 70.1346H560.966L576.18 1.50076H596.192L611.406 70.1346H613.244L623.761 1.50076H641.833L625.599 84.6417H599.562L586.186 21.4106L572.81 84.6417H546.773L530.539 1.50076Z" fill="#1D1D1B"/>
<path d="M694.112 68.6338C696.664 66.8329 698.4 63.8315 699.421 59.8295C700.442 55.8275 700.953 50.3248 700.953 43.4214C700.953 36.518 700.442 31.0153 699.319 26.9133C698.196 22.8112 696.46 19.7097 693.908 17.7087C691.355 15.7077 687.883 14.7072 683.493 14.7072C679.102 14.7072 675.631 15.7077 673.078 17.7087C670.526 19.7097 668.688 22.7112 667.667 26.9133C666.543 31.0153 666.033 36.518 666.033 43.4214C666.033 49.8245 666.441 55.0271 667.36 59.0291C668.279 63.0311 670.015 66.0325 672.568 68.2336C675.12 70.3346 678.694 71.4352 683.493 71.4352C688.088 71.4352 691.559 70.5348 694.112 68.6338ZM662.97 81.5402C657.762 78.5387 654.087 73.9364 651.84 67.6333C649.594 61.4303 648.369 53.3263 648.369 43.4214C648.369 33.4165 649.492 25.2124 651.84 18.9093C654.087 12.6062 657.864 7.90389 662.97 4.70231C668.075 1.60079 675.018 0 683.595 0C692.172 0 699.013 1.60079 704.118 4.70231C709.325 7.80384 713.001 12.6062 715.248 18.9093C717.494 25.2124 718.719 33.4165 718.719 43.4214C718.719 53.2262 717.596 61.2302 715.452 67.3332C713.206 73.5362 709.53 78.2385 704.424 81.3401C699.319 84.4416 692.376 86.0424 683.595 86.0424C675.018 86.0424 668.177 84.5417 662.97 81.5402Z" fill="#1D1D1B"/>
<path d="M765.381 42.3209C769.261 42.3209 772.324 41.1203 774.366 38.7191C776.408 36.3179 777.532 33.1163 777.532 29.0143C777.532 24.9123 776.408 21.7107 774.264 19.4096C772.12 17.1084 769.057 15.9079 765.177 15.9079H749.453V42.3209H765.381ZM732.197 1.50076H765.075C784.985 1.50076 794.992 10.6052 794.992 28.9143C794.992 39.7196 790.805 47.7235 782.535 52.8261L794.583 84.6417H775.796L765.994 56.828H749.453V84.6417H732.197V1.50076Z" fill="#1D1D1B"/>
<path d="M854.11 69.7344V84.6417H805.815V1.50076H822.968V69.7344H854.11Z" fill="#1D1D1B"/>
<path d="M902.099 66.7329C904.754 64.6319 906.388 61.6304 907.205 57.6284C908.021 53.7265 908.43 48.0237 908.43 40.7201C908.43 34.2169 908.021 29.3145 907.205 25.9128C906.388 22.6112 904.652 20.1099 902.099 18.5091C899.547 16.9084 895.565 16.108 890.153 16.108H878.819V69.8344H890.153C895.462 69.9345 899.547 68.8339 902.099 66.7329ZM912.31 5.50274C917.415 8.10402 921.091 12.3061 923.133 18.0089C925.175 23.7117 926.196 31.6156 926.196 41.7206C926.196 52.2258 925.175 60.5299 923.235 66.6329C921.193 72.7359 917.619 77.2381 912.412 80.2396C907.205 83.141 899.751 84.6417 890.153 84.6417H861.563V1.50076H890.153C899.751 1.50076 907.102 2.8014 912.31 5.50274Z" fill="#1D1D1B"/>
<path d="M578.018 174.786C580.673 172.685 582.307 169.684 583.123 165.682C583.94 161.78 584.349 156.077 584.349 148.773C584.349 142.27 583.94 137.368 583.123 133.966C582.307 130.664 580.571 128.163 578.018 126.562C575.466 124.962 571.483 124.161 566.072 124.161H554.738V177.888H566.072C571.381 177.888 575.363 176.887 578.018 174.786ZM588.229 113.456C593.334 116.057 597.01 120.259 599.052 125.962C601.094 131.665 602.115 139.569 602.115 149.674C602.115 160.179 601.094 168.483 599.154 174.586C597.112 180.689 593.538 185.191 588.331 188.193C583.123 191.094 575.67 192.595 566.072 192.595H537.482V109.454H566.072C575.67 109.454 583.021 110.855 588.229 113.456Z" fill="#1D1D1B"/>
<path d="M634.38 109.454H617.125V192.595H634.38V109.454Z" fill="#1D1D1B"/>
<path d="M686.045 150.274C689.925 150.274 692.988 149.073 695.03 146.672C697.072 144.271 698.196 141.069 698.196 136.967C698.196 132.865 697.072 129.664 694.928 127.363C692.784 125.062 689.721 123.861 685.841 123.861H670.117V150.274H686.045ZM652.963 109.454H685.841C705.751 109.454 715.758 118.558 715.758 136.867C715.758 147.673 711.571 155.677 703.301 160.779L715.349 192.595H696.562L686.76 164.781H670.219V192.595H652.963V109.454Z" fill="#1D1D1B"/>
<path d="M747.614 124.161V143.571H777.735V157.978H747.614V177.888H785.189V192.595H730.358V109.454H785.189V124.161H747.614Z" fill="#1D1D1B"/>
<path d="M808.163 189.393C803.364 186.292 799.995 181.69 798.259 175.687C796.523 169.584 795.604 161.58 795.604 151.475C795.604 140.369 796.625 131.765 798.565 125.562C800.505 119.359 803.773 114.957 808.367 112.155C812.962 109.454 819.293 108.053 827.563 108.053C835.119 108.053 843.594 109.154 852.885 111.355L852.375 124.761C844.104 123.561 837.467 122.961 832.26 122.961C827.053 122.961 823.071 123.761 820.416 125.362C817.761 126.963 815.923 129.664 814.902 133.366C813.881 137.068 813.371 142.27 813.371 149.073V153.576C813.575 160.579 814.085 165.782 814.902 169.283C815.821 172.785 817.455 175.286 820.11 176.787C822.662 178.288 826.644 179.088 831.954 179.088C837.569 179.088 844.411 178.488 852.375 177.387L852.783 191.194C843.696 193.095 835.732 193.996 828.993 193.996C819.905 194.096 812.962 192.495 808.163 189.393Z" fill="#1D1D1B"/>
<path d="M884.333 124.361H861.666V109.454H924.052V124.361H901.589V192.595H884.333V124.361Z" fill="#1D1D1B"/>
<defs>
<clipPath id="clip0_15_261">
<rect width="925" height="191" fill="white" transform="translate(1008 1)"/>
</clipPath>
</defs>
</svg>
