<svg width="760" height="194" viewBox="0 0 760 194" fill="none" xmlns="http://www.w3.org/2000/svg">
<g clip-path="url(#clip0_22_161)">
<g clip-path="url(#clip1_22_161)">
<path d="M575.769 48.29L603.159 1.01682L713.463 1.00244L740.704 48.7452L740.738 144.25L713.467 191.964L603.197 192.002L575.491 144.255L575.769 48.29Z" fill="#4D4D4D"/>
<path d="M575.496 144.24H625.206L597.902 96.1286L620.108 48.2996L575.774 48.29L548 96.5168" fill="#EDEDED"/>
<path d="M640.282 144.24H676.618L708.748 97.4128L677.179 48.7501H634.436L608.689 95.7741L640.282 144.24Z" fill="#E0E0E0"/>
<path d="M548 96.512L575.496 144.255H625.211L598.204 96.6749L548 96.512Z" fill="#ACACAC"/>
<path d="M609.211 96.5215L640.286 144.255H676.618L708.244 96.5407L609.211 96.5215Z" fill="#9E9E9E"/>
<path d="M621.516 96.5455L612.139 99.2767L603.14 96.5407L639.879 32.8613L649.07 48.7596" fill="#00B8E3"/>
<path d="M649.031 144.24L639.888 160.206L615.484 133.915L603.121 96.5551V96.5359H621.512" fill="#33C6E9"/>
<path d="M603.145 96.5407H603.126V96.5551L593.94 112.473L584.715 96.627L594.069 80.4029L621.517 32.8709H639.889" fill="#008AAA"/>
<path d="M704.234 144.24H759.877L759.843 48.7452H704.234V144.24Z" fill="#D4D4D4"/>
<path d="M704.234 96.6701V144.25H759.776V96.6701H704.234Z" fill="#919191"/>
<path d="M639.898 160.225H621.512L593.939 112.468L603.125 96.5599L639.898 160.225Z" fill="#00B8E3"/>
<path d="M713.41 96.5407L676.661 160.211C673.283 155.247 667.494 144.255 667.494 144.255L695.062 96.5311L713.41 96.5407Z" fill="#008AAA"/>
<path d="M695.014 160.211L676.661 160.206L713.415 96.5359L722.596 80.6376L731.806 96.6413M713.41 96.5407H695.067L667.49 48.7548L676.618 32.8757L698.939 61.2511L713.41 96.5407Z" fill="#00B8E3"/>
<path d="M722.596 80.6281V80.6424L713.41 96.5407L676.623 32.8805L695.028 32.8901L722.596 80.6281Z" fill="#33C6E9"/>
</g>
<path d="M0 1L111.499 192.294L154.689 118.958L86.0747 1H0Z" fill="#6FA1CE"/>
<path d="M85.564 1L197.165 192.294L240.356 118.958L171.639 1H85.564Z" fill="#006FAD"/>
<path d="M309.481 1H171.435L240.254 118.958L309.481 1Z" fill="#003A5D"/>
<path d="M327.145 1H326.737L214.523 192.294H327.145C380.852 192.294 424.758 149.273 424.758 96.6471C424.758 44.0212 380.852 1 327.145 1Z" fill="#003A5D"/>
<path d="M477.853 25.8123C477.853 39.519 466.519 50.5245 452.633 50.5245C438.644 50.5245 427.413 39.419 427.413 25.8123C427.413 12.1055 438.746 1.1001 452.633 1.1001C466.519 1.00005 477.853 12.1055 477.853 25.8123Z" fill="#AFCA0B"/>
</g>
<defs>
<clipPath id="clip0_22_161">
<rect width="760" height="194" fill="white"/>
</clipPath>
<clipPath id="clip1_22_161">
<rect width="925" height="191" fill="white" transform="translate(548 1)"/>
</clipPath>
</defs>
</svg>
